<svg xmlns="http://www.w3.org/2000/svg" xmlns:xlink="http://www.w3.org/1999/xlink" width="300" zoomAndPan="magnify" viewBox="0 0 375 374.999991" height="300" preserveAspectRatio="xMidYMid meet" version="1.0"><defs><g/></defs><g fill="#000000" fill-opacity="1"><g transform="translate(49.249806, 180.858294)"><g><path d="M 189.078125 -112.171875 L 182.25 -110.90625 C 174.09375 -96.8125 166.253906 -77.847656 158.734375 -54.015625 C 155.867188 -45.015625 151.84375 -34.660156 146.65625 -22.953125 C 141.46875 -11.253906 135.691406 -0.425781 129.328125 9.53125 C 120.753906 22.875 109.34375 33.863281 95.09375 42.5 C 80.84375 51.132812 67.835938 56.25 56.078125 57.84375 C 50.679688 58.582031 44.539062 58.953125 37.65625 58.953125 C 30.769531 58.953125 23.671875 57.734375 16.359375 55.296875 C 4.921875 51.484375 -2.914062 45.234375 -7.15625 36.546875 C -9.0625 32.515625 -10.015625 27.796875 -10.015625 22.390625 C -10.015625 16.992188 -8.582031 10.644531 -5.71875 3.34375 C -3.707031 -1.53125 -0.160156 -6.085938 4.921875 -10.328125 C 10.003906 -14.566406 13.976562 -16.738281 16.84375 -16.84375 C 18.113281 -16.945312 18.75 -16.734375 18.75 -16.203125 C 18.644531 -15.785156 17.957031 -15.257812 16.6875 -14.625 C 13.289062 -13.238281 9.523438 -10.210938 5.390625 -5.546875 C 1.265625 -0.890625 -1.457031 3.789062 -2.78125 8.5 C -4.101562 13.21875 -4.765625 16.847656 -4.765625 19.390625 C -4.765625 27.117188 -2.703125 33.367188 1.421875 38.140625 C 4.285156 41.316406 7.832031 44.175781 12.0625 46.71875 C 16.300781 49.257812 20.859375 51.003906 25.734375 51.953125 C 32.941406 53.328125 38.660156 54.015625 42.890625 54.015625 C 47.128906 54.015625 50.890625 53.59375 54.171875 52.75 C 61.378906 51.164062 68.34375 48.519531 75.0625 44.8125 C 81.789062 41.101562 87.75 37.050781 92.9375 32.65625 C 98.132812 28.257812 103.300781 22.828125 108.4375 16.359375 C 113.570312 9.898438 117.890625 4.023438 121.390625 -1.265625 C 124.890625 -6.566406 128.597656 -12.925781 132.515625 -20.34375 C 138.867188 -32.414062 145.382812 -46.289062 152.0625 -61.96875 C 160.425781 -80.613281 168.898438 -96.710938 177.484375 -110.265625 C 162.753906 -107.828125 147.765625 -102.53125 132.515625 -94.375 C 124.773438 -90.25 118.15625 -85.007812 112.65625 -78.65625 C 105.550781 -70.601562 102 -61.96875 102 -52.75 C 102 -47.769531 103.191406 -43.898438 105.578125 -41.140625 C 107.960938 -38.390625 110.476562 -37.015625 113.125 -37.015625 C 115.769531 -37.015625 118.679688 -37.597656 121.859375 -38.765625 C 125.046875 -39.929688 127.910156 -41.945312 130.453125 -44.8125 C 134.472656 -49.46875 136.484375 -54.816406 136.484375 -60.859375 C 136.484375 -63.398438 136.113281 -65.09375 135.375 -65.9375 C 134.101562 -66.78125 133.992188 -67.578125 135.046875 -68.328125 C 136.210938 -68.960938 137.429688 -68.585938 138.703125 -67.203125 C 139.765625 -64.878906 140.296875 -62.15625 140.296875 -59.03125 C 140.296875 -55.90625 139.128906 -52.328125 136.796875 -48.296875 C 132.878906 -41.628906 127.476562 -37.078125 120.59375 -34.640625 C 117.414062 -33.578125 114.394531 -33.046875 111.53125 -33.046875 C 106.769531 -33.046875 102.484375 -34.582031 98.671875 -37.65625 C 93.796875 -41.675781 91.359375 -47.078125 91.359375 -53.859375 C 91.359375 -62.441406 94.429688 -70.648438 100.578125 -78.484375 C 105.234375 -84.523438 110.710938 -89.503906 117.015625 -93.421875 C 123.316406 -97.347656 130.441406 -100.847656 138.390625 -103.921875 C 151.203125 -108.890625 165.128906 -112.382812 180.171875 -114.40625 C 181.453125 -116.519531 183.363281 -119.003906 185.90625 -121.859375 C 188.445312 -124.722656 190.5625 -126.421875 192.25 -126.953125 C 193.945312 -127.484375 195.328125 -127.75 196.390625 -127.75 C 200.097656 -127.75 201.953125 -126.160156 201.953125 -122.984375 C 201.835938 -120.117188 200.664062 -117.914062 198.4375 -116.375 C 196.21875 -114.84375 193.097656 -113.441406 189.078125 -112.171875 Z M 194 -122.65625 C 193.789062 -122.65625 193.550781 -122.601562 193.28125 -122.5 C 193.019531 -122.394531 192.648438 -122.15625 192.171875 -121.78125 C 191.691406 -121.414062 191.238281 -121.070312 190.8125 -120.75 C 190.394531 -120.4375 189.894531 -119.960938 189.3125 -119.328125 C 188.726562 -118.691406 188.25 -118.1875 187.875 -117.8125 C 187.507812 -117.445312 187.007812 -116.921875 186.375 -116.234375 C 185.738281 -115.546875 185.316406 -115.09375 185.109375 -114.875 C 192.410156 -116.144531 196.007812 -118.101562 195.90625 -120.75 C 195.695312 -122.019531 195.0625 -122.65625 194 -122.65625 Z M 194 -122.65625 "/></g></g></g><g fill="#000000" fill-opacity="1"><g transform="translate(114.252931, 293.979563)"><g><path d="M 196.953125 -36.4375 C 196.953125 -29.21875 194.363281 -22.507812 189.1875 -16.3125 C 181.84375 -7.457031 172.035156 -1.070312 159.765625 2.84375 C 150.660156 5.75 141.804688 7.203125 133.203125 7.203125 C 130.035156 7.203125 126.9375 7.015625 123.90625 6.640625 C 104.039062 4.109375 87.21875 -0.253906 73.4375 -6.453125 C 60.90625 2.785156 47.6875 7.40625 33.78125 7.40625 C 17.332031 7.40625 7.144531 2.847656 3.21875 -6.265625 C 2.332031 -8.410156 1.890625 -10.9375 1.890625 -13.84375 C 1.890625 -16.757812 3.347656 -19.863281 6.265625 -23.15625 C 10.816406 -28.207031 17.140625 -30.734375 25.234375 -30.734375 C 30.546875 -30.734375 35.351562 -29.972656 39.65625 -28.453125 C 43.957031 -26.941406 49.269531 -24.476562 55.59375 -21.0625 C 61.914062 -17.644531 66.597656 -15.175781 69.640625 -13.65625 C 75.203125 -19.101562 80.957031 -26.664062 86.90625 -36.34375 C 92.851562 -46.019531 98.070312 -55.503906 102.5625 -64.796875 C 107.050781 -74.097656 112.773438 -84.441406 119.734375 -95.828125 C 126.691406 -107.210938 133.773438 -116.890625 140.984375 -124.859375 L 151.796875 -137.1875 C 141.804688 -138.957031 130.800781 -139.84375 118.78125 -139.84375 C 106.757812 -139.84375 93.539062 -138.265625 79.125 -135.109375 C 59.394531 -130.929688 44.210938 -122.453125 33.578125 -109.671875 C 27.128906 -101.953125 23.90625 -94.617188 23.90625 -87.671875 C 23.90625 -78.429688 28.394531 -72.421875 37.375 -69.640625 C 40.539062 -68.753906 43.320312 -68.3125 45.71875 -68.3125 C 48.125 -68.3125 50.910156 -68.753906 54.078125 -69.640625 C 57.242188 -70.523438 60.3125 -72.390625 63.28125 -75.234375 C 66.25 -78.078125 68.394531 -80.828125 69.71875 -83.484375 C 71.050781 -86.140625 71.71875 -88.128906 71.71875 -89.453125 C 71.71875 -90.785156 72.351562 -91.453125 73.625 -91.453125 C 74.882812 -91.328125 75.578125 -90.441406 75.703125 -88.796875 L 75.703125 -88.609375 C 74.316406 -79.378906 69.382812 -72.359375 60.90625 -67.546875 C 55.71875 -64.765625 50.53125 -63.375 45.34375 -63.375 L 35.484375 -65.078125 C 22.078125 -69.765625 15.375 -78.492188 15.375 -91.265625 C 15.375 -99.992188 19.226562 -108.597656 26.9375 -117.078125 C 39.34375 -130.992188 57.5625 -139.660156 81.59375 -143.078125 C 93.226562 -144.710938 105.335938 -145.53125 117.921875 -145.53125 C 130.515625 -145.53125 143.328125 -144.140625 156.359375 -141.359375 C 159.898438 -144.398438 163 -146.425781 165.65625 -147.4375 C 168.3125 -148.445312 169.859375 -148.953125 170.296875 -148.953125 C 170.742188 -148.953125 171.03125 -148.890625 171.15625 -148.765625 C 171.914062 -148.765625 172.070312 -148.351562 171.625 -147.53125 C 171.1875 -146.707031 169.796875 -145.535156 167.453125 -144.015625 C 165.109375 -142.503906 163.6875 -141.113281 163.1875 -139.84375 C 180.382812 -135.414062 192.78125 -129.09375 200.375 -120.875 C 204.425781 -116.320312 206.453125 -111.671875 206.453125 -106.921875 C 206.453125 -102.179688 205.0625 -97.40625 202.28125 -92.59375 C 198.601562 -86.269531 192.65625 -81.492188 184.4375 -78.265625 C 176.21875 -75.046875 167.929688 -73.242188 159.578125 -72.859375 C 167.671875 -70.328125 175.195312 -66.785156 182.15625 -62.234375 C 192.019531 -55.785156 196.953125 -47.1875 196.953125 -36.4375 Z M 130.546875 1.890625 C 144.710938 1.890625 156.726562 -2.15625 166.59375 -10.25 C 177.351562 -18.851562 182.734375 -28.148438 182.734375 -38.140625 C 182.734375 -48.515625 177.226562 -56.359375 166.21875 -61.671875 C 162.175781 -63.566406 157.210938 -65.429688 151.328125 -67.265625 C 145.441406 -69.097656 140.695312 -70.644531 137.09375 -71.90625 C 133.488281 -73.175781 131.429688 -74.378906 130.921875 -75.515625 C 130.921875 -77.921875 132.757812 -79.1875 136.4375 -79.3125 C 138.832031 -79.3125 142.5 -79.117188 147.4375 -78.734375 C 152.375 -78.359375 156.613281 -78.203125 160.15625 -78.265625 C 163.695312 -78.328125 167.960938 -79.59375 172.953125 -82.0625 C 177.953125 -84.53125 182.222656 -87.726562 185.765625 -91.65625 C 191.453125 -97.976562 194.296875 -103.921875 194.296875 -109.484375 C 194.296875 -121.378906 183.164062 -129.921875 160.90625 -135.109375 C 154.195312 -125.867188 142.175781 -106.351562 124.84375 -76.5625 C 107.519531 -46.769531 94.175781 -26.816406 84.8125 -16.703125 L 77.609375 -9.859375 C 91.898438 -3.921875 107.269531 -0.128906 123.71875 1.515625 C 126.125 1.765625 128.398438 1.890625 130.546875 1.890625 Z M 65.46875 -10.0625 C 50.664062 -17.144531 41.300781 -21.378906 37.375 -22.765625 C 33.457031 -24.160156 29.566406 -24.859375 25.703125 -24.859375 C 21.847656 -24.859375 18.78125 -23.5 16.5 -20.78125 C 14.226562 -18.0625 13.09375 -15.59375 13.09375 -13.375 C 13.09375 -11.164062 13.597656 -9.046875 14.609375 -7.015625 C 17.390625 -1.328125 23.207031 1.515625 32.0625 1.515625 C 44.082031 1.515625 55.21875 -2.34375 65.46875 -10.0625 Z M 65.46875 -10.0625 "/></g></g></g></svg>